<svg width="12" height="13" viewBox="0 0 12 13" fill="none" xmlns="http://www.w3.org/2000/svg">
<path d="M6 1.11635e-08C5.632 1.11635e-08 5.33334 0.298467 5.33334 0.666667V7.70801L3.33334 5.72934L2.396 6.66667L5.52068 9.81268C5.78134 10.0727 6.21867 10.0727 6.47933 9.81268L9.60401 6.66667L8.66667 5.72934L6.66667 7.70801V0.666667C6.66667 0.298467 6.36801 -6.66556e-05 6 1.11635e-08ZM0.666667 8.00001C0.298667 8.00001 0 8.29868 0 8.66668V10C0 11.4727 1.194 12.6667 2.66667 12.6667H9.33334C10.806 12.6667 12 11.4727 12 10V8.66668C12 8.29868 11.7013 8.00001 11.3333 8.00001C10.9653 8.00001 10.6667 8.29868 10.6667 8.66668V10C10.6667 10.7367 10.07 11.3333 9.33334 11.3333H2.66667C1.93 11.3333 1.33333 10.7367 1.33333 10V8.66668C1.33333 8.29868 1.03467 8.00001 0.666667 8.00001Z" fill="#ABE3EE"/>
</svg>
