<svg width="27" height="27" viewBox="0 0 27 27" fill="none" xmlns="http://www.w3.org/2000/svg">
<rect x="0.5625" y="0.5625" width="25.875" height="25.875" rx="4.20221" fill="#363535"/>
<rect x="0.5625" y="0.5625" width="25.875" height="25.875" rx="4.20221" stroke="white" stroke-width="1.125"/>
<path d="M12.44 14.015C12.2019 13.7163 11.9293 13.4878 11.6241 13.3332C11.8938 13.1691 12.1261 12.9674 12.3181 12.7274C12.6416 12.3222 12.8057 11.8143 12.8057 11.217C12.8057 10.7187 12.6742 10.2607 12.4141 9.85648C12.1549 9.45225 11.769 9.12771 11.267 8.89151C10.7755 8.66011 10.1833 8.54297 9.5085 8.54297H5.66992V18.4586H9.68512C10.3426 18.4586 10.9301 18.3386 11.4302 18.1024C11.9399 17.8624 12.3373 17.5263 12.6099 17.1048C12.8835 16.6813 13.0226 16.2003 13.0226 15.6751C13.0226 15.0596 12.8268 14.5018 12.44 14.0159V14.015ZM10.4012 12.2079C10.1641 12.4 9.81758 12.4979 9.37315 12.4979H7.71256V10.301H9.37315C9.81566 10.301 10.1603 10.4019 10.3974 10.6016C10.6248 10.7926 10.7352 11.0567 10.7352 11.4062C10.7352 11.7557 10.6258 12.0265 10.4012 12.2079ZM7.71256 14.2569H9.49506C9.96156 14.2569 10.3206 14.3702 10.5922 14.6035C10.8523 14.8273 10.979 15.124 10.979 15.5119C10.979 15.8998 10.8619 16.1734 10.62 16.3779C10.3695 16.5901 10.0096 16.6977 9.54881 16.6977H7.71256V14.2569Z" fill="white"/>
<path d="M20.8644 12.3564C20.5553 11.7976 20.1176 11.3569 19.5627 11.0477C19.0089 10.7385 18.3687 10.582 17.6622 10.582C16.9557 10.582 16.2675 10.7433 15.7002 11.0612C15.1319 11.3799 14.6846 11.8379 14.3717 12.4246C14.0588 13.0103 13.9004 13.6978 13.9004 14.4678C13.9004 15.2379 14.0636 15.9263 14.3861 16.5111C14.7086 17.0968 15.1598 17.5576 15.728 17.8803C16.2953 18.2029 16.9461 18.3661 17.6631 18.3661C18.5434 18.3661 19.2911 18.1424 19.8862 17.7017C20.4814 17.261 20.8979 16.6868 21.1254 15.9964L21.1418 15.9474H19.4005L19.39 15.9686C19.055 16.6474 18.4742 16.9911 17.6622 16.9911C17.0968 16.9911 16.613 16.8116 16.2243 16.4592C15.8451 16.1145 15.6272 15.6536 15.5763 15.0881H21.2704L21.2752 15.0564C21.3117 14.8289 21.3299 14.5715 21.3299 14.2921C21.3299 13.5662 21.1734 12.9152 20.8644 12.3564ZM16.2511 12.4563C16.6217 12.125 17.0738 11.958 17.594 11.958C18.169 11.958 18.6576 12.1279 19.0463 12.464C19.4245 12.7904 19.6251 13.2292 19.6424 13.7669H15.5927C15.6695 13.2206 15.8912 12.7799 16.2521 12.4572L16.2511 12.4563Z" fill="white"/>
<path d="M19.5113 8.77148H15.7188V9.6702H19.5113V8.77148Z" fill="white"/>
</svg>
