<svg width="27" height="27" viewBox="0 0 27 27" fill="none" xmlns="http://www.w3.org/2000/svg">
<rect x="0.5625" y="0.5625" width="25.875" height="25.875" rx="4.20221" fill="#363535"/>
<rect x="0.5625" y="0.5625" width="25.875" height="25.875" rx="4.20221" stroke="white" stroke-width="1.125"/>
<path d="M19.5215 10.0582C18.8046 10.0582 18.1952 9.80733 17.6934 9.30549C17.1915 8.80365 16.9406 8.19428 16.9406 7.47737C16.9406 6.76046 17.1915 6.15108 17.6934 5.64924C18.1952 5.1474 18.8046 4.89648 19.5215 4.89648C20.2384 4.89648 20.8478 5.1474 21.3496 5.64924C21.8514 6.15108 22.1024 6.76046 22.1024 7.47737C22.1024 8.19428 21.8514 8.80365 21.3496 9.30549C20.8478 9.80733 20.2384 10.0582 19.5215 10.0582ZM6.61707 20.3818C6.14391 20.3818 5.73886 20.2133 5.40191 19.8764C5.06496 19.5394 4.89648 19.1344 4.89648 18.6612V8.33766C4.89648 7.8645 5.06496 7.45944 5.40191 7.1225C5.73886 6.78555 6.14391 6.61707 6.61707 6.61707H15.306C15.2487 6.90384 15.22 7.1906 15.22 7.47737C15.22 7.76413 15.2487 8.0509 15.306 8.33766C15.4064 8.79648 15.5713 9.22305 15.8007 9.61735C16.0301 10.0117 16.3097 10.3594 16.6395 10.6605L13.4994 12.6391L6.61707 8.33766V10.0582L13.4994 14.3597L18.0375 11.5207C18.2812 11.6068 18.525 11.6713 18.7687 11.7143C19.0125 11.7573 19.2634 11.7788 19.5215 11.7788C19.9803 11.7788 20.432 11.7071 20.8764 11.5638C21.3209 11.4204 21.7296 11.2053 22.1024 10.9185V18.6612C22.1024 19.1344 21.9339 19.5394 21.5969 19.8764C21.26 20.2133 20.8549 20.3818 20.3818 20.3818H6.61707Z" fill="white"/>
</svg>
