<svg width="27" height="27" viewBox="0 0 27 27" fill="none" xmlns="http://www.w3.org/2000/svg">
<rect x="0.5625" y="0.5625" width="25.875" height="25.875" rx="4.20221" fill="#363535"/>
<rect x="0.5625" y="0.5625" width="25.875" height="25.875" rx="4.20221" stroke="white" stroke-width="1.125"/>
<path d="M15.0324 8.86496V11.2441H17.9992L17.5294 14.4489H15.0324V21.8327C14.5318 21.9015 14.0195 21.9375 13.4996 21.9375C12.8995 21.9375 12.3101 21.8901 11.7362 21.7982V14.4489H9V11.2441H11.7362V8.33313C11.7362 6.52717 13.2119 5.0625 15.0332 5.0625V5.06403C15.0386 5.06403 15.0432 5.0625 15.0486 5.0625H18V7.83419H16.0715C15.4983 7.83419 15.0332 8.29563 15.0332 8.8642L15.0324 8.86496Z" fill="white"/>
</svg>
