<svg width="27" height="27" viewBox="0 0 27 27" fill="none" xmlns="http://www.w3.org/2000/svg">
<rect x="0.5625" y="0.5625" width="25.875" height="25.875" rx="4.20221" fill="#363535"/>
<rect x="0.5625" y="0.5625" width="25.875" height="25.875" rx="4.20221" stroke="white" stroke-width="1.125"/>
<path d="M17.7389 5.37305H9.26116C6.91904 5.37305 5.01367 7.27898 5.01367 9.62179V17.3799C5.01367 19.7227 6.91904 21.6287 9.26116 21.6287H17.7389C20.081 21.6287 21.9863 19.7227 21.9863 17.3799V9.62179C21.9863 7.27898 20.081 5.37305 17.7389 5.37305ZM6.51205 9.62179C6.51205 8.10568 7.7455 6.87187 9.26116 6.87187H17.7389C19.2545 6.87187 20.488 8.10568 20.488 9.62179V17.3799C20.488 18.896 19.2545 20.1299 17.7389 20.1299H9.26116C7.7455 20.1299 6.51205 18.896 6.51205 17.3799V9.62179Z" fill="white"/>
<path d="M13.4997 17.4529C15.6777 17.4529 17.4506 15.6805 17.4506 13.5009C17.4506 11.3213 15.6787 9.54883 13.4997 9.54883C11.3208 9.54883 9.54883 11.3213 9.54883 13.5009C9.54883 15.6805 11.3208 17.4529 13.4997 17.4529ZM13.4997 11.0486C14.8522 11.0486 15.9522 12.149 15.9522 13.5018C15.9522 14.8547 14.8522 15.9551 13.4997 15.9551C12.1472 15.9551 11.0472 14.8547 11.0472 13.5018C11.0472 12.149 12.1472 11.0486 13.4997 11.0486Z" fill="white"/>
<path d="M17.8165 10.1863C18.403 10.1863 18.881 9.70909 18.881 9.12147C18.881 8.53385 18.4039 8.05664 17.8165 8.05664C17.229 8.05664 16.752 8.53385 16.752 9.12147C16.752 9.70909 17.229 10.1863 17.8165 10.1863Z" fill="white"/>
</svg>
