<svg width="27" height="27" viewBox="0 0 27 27" fill="none" xmlns="http://www.w3.org/2000/svg">
<rect x="0.5625" y="0.5625" width="25.875" height="25.875" rx="4.20221" fill="#363535"/>
<rect x="0.5625" y="0.5625" width="25.875" height="25.875" rx="4.20221" stroke="white" stroke-width="1.125"/>
<path d="M16.1727 17.5074C12.6662 17.5074 9.81346 14.6528 9.8125 11.1453C9.81346 10.2562 10.5372 9.5332 11.4241 9.5332C11.5153 9.5332 11.6056 9.54088 11.6919 9.55625C11.882 9.58793 12.0625 9.65226 12.2285 9.74924C12.2525 9.76364 12.2688 9.78669 12.2727 9.81358L12.6432 12.1497C12.648 12.1765 12.6394 12.2044 12.6211 12.2246C12.4167 12.4512 12.1556 12.6144 11.8647 12.696L11.7246 12.7354L11.7774 12.8707C12.2554 14.0882 13.2287 15.0609 14.4468 15.541L14.5822 15.5947L14.6215 15.4546C14.7031 15.1636 14.8663 14.9025 15.0928 14.6979C15.1091 14.6826 15.1312 14.6749 15.1533 14.6749C15.1581 14.6749 15.1629 14.6749 15.1687 14.6759L17.5041 15.0465C17.5319 15.0513 17.5549 15.0666 17.5693 15.0906C17.6653 15.2568 17.7296 15.4382 17.7623 15.6283C17.7776 15.7128 17.7843 15.8021 17.7843 15.8953C17.7843 16.7834 17.0615 17.5064 16.1727 17.5074Z" fill="#FDFDFD"/>
<path d="M13.7949 5.06348C15.9133 5.06348 17.9384 5.85568 19.5 7.29297C21.0298 8.70118 21.9794 10.6024 22.1836 12.6553H22.1846L22.1934 12.748C22.2158 12.9923 22.2266 13.2456 22.2266 13.499V13.5449C22.2036 17.5227 19.3606 20.9797 15.4678 21.7666C15.3374 21.7929 15.2059 21.8165 15.0742 21.8369L14.6787 21.8887C14.3806 21.9196 14.0835 21.9346 13.7939 21.9346C12.6917 21.9346 11.621 21.7241 10.6094 21.3096L10.5635 21.291L10.5127 21.2959L4.90137 21.8936L6.61914 18.0908L6.66309 17.9951L6.60742 17.9053C5.79256 16.5809 5.3623 15.0601 5.3623 13.499C5.36232 8.84812 9.14553 5.06348 13.7949 5.06348ZM13.7949 6.40918C9.88601 6.40919 6.70606 9.59008 6.70605 13.5C6.70605 14.9993 7.17095 16.4345 8.0498 17.6484L8.05078 17.6494L8.09668 17.7109L8.22266 17.8809L7.28711 19.9551L7.14453 20.2705L7.48926 20.2344L10.7246 19.8887L10.8027 19.9268C10.8923 19.97 10.9878 20.0117 11.085 20.0508V20.0498C11.9468 20.409 12.8587 20.5918 13.7969 20.5918C14.0603 20.5918 14.3259 20.5765 14.585 20.5469L14.584 20.5459C14.8334 20.5192 15.084 20.4792 15.3281 20.4248L15.3271 20.4238C18.5225 19.7166 20.8077 16.9394 20.8828 13.6689V13.668C20.8838 13.6119 20.8848 13.5568 20.8848 13.501C20.8848 13.3069 20.8751 13.1106 20.8594 12.916V12.915C20.5599 9.26621 17.4573 6.40918 13.7949 6.40918Z" fill="#FDFDFD" stroke="white" stroke-width="0.397059"/>
</svg>
